<?xml version="1.0" encoding="iso-8859-1"?>
<!-- Uploaded to: SVG Repo, www.svgrepo.com, Transformed by: SVG Repo Mixer Tools -->
<svg xmlns="http://www.w3.org/2000/svg" xmlns:xlink="http://www.w3.org/1999/xlink" version="1.1" id="Layer_1"  viewBox="0 0 446.24 446.24" xml:space="preserve" width="512" height="512">
<g id="_x32_2._Certificate_2_">
	<g>
		<g id="XMLID_70_">
			<g>
				<g>
					<path style="fill:#F2D59F;" d="M436.24,39.66v268.37c0,8.28-6.71,15-15,15h-43.66c8.68-11.81,13.8-26.4,13.8-42.18       c0-10.3-2.19-20.1-6.12-28.95l0.98-0.42V104.66c-16.57,0-30-13.43-30-30H90c0,16.57-13.43,30-30,30v138.37       c16.57,0,30,13.43,30,30h158.64l0.42,0.05c-0.28,2.55-0.42,5.14-0.42,7.77c0,15.78,5.12,30.37,13.8,42.18H25       c-8.29,0-15-6.72-15-15V39.66c0-8.28,6.71-15,15-15h396.24C429.53,24.66,436.24,31.38,436.24,39.66z"/>
				</g>
				<g>
					<path style="fill:#8ECAC1;" d="M376.93,323.9l37.87,65.59l-41.74-8.1l-13.85,40.19l-39.13-67.77l0.92-1.6       C343.85,351.9,364.09,340.86,376.93,323.9z"/>
				</g>
				<g>
					<path style="fill:#E6B263;" d="M277.6,223.45c-15.61,11.55-26.34,29.31-28.54,49.63l-0.42-0.05H90c0-16.57-13.43-30-30-30       V104.66c16.57,0,30-13.43,30-30h266.24c0,16.57,13.43,30,30,30v146.82l-0.98,0.42c-11.1-24.99-36.14-42.42-65.25-42.42       C304.12,209.48,289.45,214.67,277.6,223.45z"/>
				</g>
				<g>
					<path style="fill:#FF7124;" d="M262.44,323.03c-8.68-11.81-13.8-26.4-13.8-42.18c0-2.63,0.14-5.22,0.42-7.77       c2.2-20.32,12.93-38.08,28.54-49.63c11.85-8.78,26.52-13.97,42.41-13.97c29.11,0,54.15,17.43,65.25,42.42       c3.93,8.85,6.12,18.65,6.12,28.95c0,15.78-5.12,30.37-13.8,42.18c-0.21,0.3-0.42,0.59-0.65,0.87       c-12.84,16.96-33.08,28-55.93,28.31c-0.33,0.01-0.66,0.01-0.99,0.01c-0.29,0-0.58,0-0.86-0.01       c-22.85-0.27-43.12-11.27-55.98-28.21C262.92,323.68,262.68,323.36,262.44,323.03z M349.38,280.85       c0-16.22-13.15-29.37-29.37-29.37s-29.37,13.15-29.37,29.37s13.15,29.37,29.37,29.37S349.38,297.07,349.38,280.85z"/>
				</g>
				<g>
					<circle style="fill:#8ECAC1;" cx="320.01" cy="280.85" r="29.37"/>
				</g>
				<g>
					<path style="fill:#8ECAC1;" d="M319.15,352.21l0.93,1.6l-39.13,67.77l-13.85-40.19l-41.74,8.1L263.17,324       C276.03,340.94,296.3,351.94,319.15,352.21z"/>
				</g>
			</g>
			<g>
				<g>
					<path style="fill:#5E2A41;" d="M421.24,333.03h-44.31c-5.523,0-10-4.478-10-10c0-5.522,4.477-10,10-10h44.31       c2.757,0,5-2.243,5-5V39.66c0-2.757-2.243-5-5-5H25c-2.757,0-5,2.243-5,5v268.37c0,2.757,2.243,5,5,5h238.17       c5.523,0,10,4.478,10,10c0,5.522-4.477,10-10,10H25c-13.785,0-25-11.215-25-25V39.66c0-13.785,11.215-25,25-25h396.24       c13.785,0,25,11.215,25,25v268.37C446.24,321.815,435.025,333.03,421.24,333.03z"/>
				</g>
				<g>
					<path style="fill:#5E2A41;" d="M264.28,134.29h-82.32c-5.523,0-10-4.478-10-10c0-5.522,4.477-10,10-10h82.32       c5.523,0,10,4.478,10,10C274.28,129.812,269.803,134.29,264.28,134.29z"/>
				</g>
				<g>
					<path style="fill:#5E2A41;" d="M328.12,183.87h-210c-5.523,0-10-4.477-10-10c0-5.522,4.477-10,10-10h210       c5.523,0,10,4.478,10,10C338.12,179.393,333.643,183.87,328.12,183.87z"/>
				</g>
				<g>
					<path style="fill:#5E2A41;" d="M277.6,233.45H118.12c-5.523,0-10-4.478-10-10c0-5.523,4.477-10,10-10H277.6       c5.523,0,10,4.477,10,10C287.6,228.973,283.123,233.45,277.6,233.45z"/>
				</g>
				<g>
					<path style="fill:#5E2A41;" d="M248.64,283.03H90c-5.523,0-10-4.478-10-10c0-11.028-8.972-20-20-20c-5.523,0-10-4.478-10-10       V104.66c0-5.522,4.477-10,10-10c11.028,0,20-8.972,20-20c0-5.522,4.477-10,10-10h266.24c5.523,0,10,4.478,10,10       c0,11.028,8.972,20,20,20c5.523,0,10,4.478,10,10v146.819c0,5.522-4.477,10-10,10c-5.523,0-10-4.478-10-10V113.394       c-14.036-3.626-25.109-14.698-28.734-28.734H98.734C95.109,98.696,84.036,109.769,70,113.394v120.901       c14.036,3.625,25.109,14.698,28.734,28.734H248.64c5.523,0,10,4.478,10,10C258.64,278.553,254.163,283.03,248.64,283.03z"/>
				</g>
				<g>
					<path style="fill:#5E2A41;" d="M280.953,431.58c-0.318,0-0.639-0.015-0.96-0.046c-3.9-0.375-7.221-2.992-8.497-6.696       l-11.019-31.977l-33.211,6.445c-3.851,0.75-7.773-0.822-10.047-4.011c-2.274-3.189-2.477-7.413-0.518-10.806L254.51,319       c2.761-4.783,8.878-6.42,13.66-3.66c4.783,2.761,6.422,8.877,3.66,13.66l-26.843,46.494l20.208-3.921       c4.893-0.953,9.737,1.848,11.36,6.559l6.703,19.452l29.073-50.359c2.754-4.789,8.868-6.436,13.654-3.684       c4.788,2.754,6.437,8.866,3.684,13.654l-0.92,1.6L289.61,426.58C287.813,429.693,284.499,431.58,280.953,431.58z"/>
				</g>
				<g>
					<path style="fill:#5E2A41;" d="M359.207,431.58c-3.547,0-6.86-1.887-8.658-5l-40.044-69.343       c-2.776-4.774-1.157-10.896,3.618-13.672c4.775-2.777,10.895-1.157,13.671,3.617l0.93,1.6l28.178,48.802l6.704-19.452       c1.624-4.712,6.469-7.512,11.359-6.559l20.207,3.921l-26.902-46.595c-2.762-4.783-1.123-10.898,3.66-13.66       c4.783-2.763,10.898-1.122,13.66,3.66l37.87,65.591c1.959,3.393,1.756,7.616-0.518,10.806       c-2.274,3.189-6.201,4.761-10.047,4.011l-33.211-6.445l-11.019,31.977c-1.276,3.704-4.598,6.321-8.497,6.696       C359.846,431.565,359.525,431.58,359.207,431.58z"/>
				</g>
				<g>
					<path style="fill:#5E2A41;" d="M320.01,362.22c-0.362,0-0.724-0.002-1.077-0.012c-25.213-0.328-48.418-12.027-63.69-32.11       c-0.301-0.387-0.591-0.775-0.881-1.172c-10.279-13.986-15.723-30.62-15.723-48.076c0-2.979,0.161-5.96,0.479-8.86       c2.431-22.452,14.29-43.08,32.533-56.578c14.065-10.421,30.789-15.932,48.358-15.932c32.14,0,61.339,18.982,74.389,48.36       c0,0.001,0,0.001,0.001,0.002c4.631,10.431,6.98,21.537,6.98,33.008c0,17.419-5.42,34.02-15.676,48.013       c-0.239,0.34-0.543,0.76-0.904,1.21c-15.254,20.064-38.42,31.771-63.591,32.136C320.809,362.219,320.41,362.22,320.01,362.22z        M320.01,219.479c-13.25,0-25.857,4.151-36.457,12.006c-13.771,10.189-22.718,25.741-24.551,42.671       c-0.241,2.193-0.362,4.44-0.362,6.693c0,13.165,4.101,25.703,11.858,36.259c0.195,0.268,0.371,0.504,0.555,0.739       c0.027,0.035,0.055,0.07,0.082,0.105c11.532,15.191,29.076,24.032,48.133,24.258c0.077,0.001,0.153,0.002,0.23,0.005       c0.167,0.006,0.338,0.003,0.512,0.004c0.231,0.001,0.462,0.001,0.694-0.006c0.053-0.001,0.107-0.002,0.16-0.003       c19.046-0.259,36.575-9.133,48.093-24.348c0.082-0.108,0.167-0.216,0.253-0.32c0.058-0.073,0.117-0.161,0.179-0.249       c0.043-0.063,0.088-0.124,0.133-0.186c7.757-10.555,11.857-23.093,11.857-36.259c0-8.657-1.77-17.032-5.259-24.893       C366.278,233.799,344.253,219.479,320.01,219.479z"/>
				</g>
				<g>
					<path style="fill:#5E2A41;" d="M320.01,320.22c-21.709,0-39.37-17.661-39.37-39.37c0-21.709,17.661-39.37,39.37-39.37       c21.708,0,39.37,17.661,39.37,39.37C359.38,302.559,341.719,320.22,320.01,320.22z M320.01,261.479       c-10.681,0-19.37,8.689-19.37,19.37s8.689,19.37,19.37,19.37c10.681,0,19.37-8.689,19.37-19.37S330.691,261.479,320.01,261.479       z"/>
				</g>
			</g>
		</g>
	</g>
</g>















</svg>